<svg xmlns="http://www.w3.org/2000/svg" xmlns:xlink="http://www.w3.org/1999/xlink" width="500" zoomAndPan="magnify" viewBox="0 0 375 374.999991" height="500" preserveAspectRatio="xMidYMid meet" version="1.0"><defs><g/><clipPath id="22aa0d60f8"><path d="M 62 0.28125 L 371 0.28125 L 371 340 L 62 340 Z M 62 0.28125 " clip-rule="nonzero"/></clipPath><clipPath id="c0598b85ca"><rect x="0" width="309" y="0" height="340"/></clipPath><clipPath id="2493d92daf"><path d="M 6 0.28125 L 107 0.28125 L 107 97 L 6 97 Z M 6 0.28125 " clip-rule="nonzero"/></clipPath><clipPath id="ed549e9d88"><rect x="0" width="114" y="0" height="125"/></clipPath><clipPath id="d65f6e87f2"><path d="M 0.558594 91 L 88 91 L 88 215 L 0.558594 215 Z M 0.558594 91 " clip-rule="nonzero"/></clipPath><clipPath id="6f512767ff"><path d="M 0.558594 1 L 82 1 L 82 97 L 0.558594 97 Z M 0.558594 1 " clip-rule="nonzero"/></clipPath><clipPath id="aa39af75d4"><rect x="0" width="88" y="0" height="124"/></clipPath><clipPath id="0fb1d76c32"><rect x="0" width="371" y="0" height="340"/></clipPath></defs><g transform="matrix(1, 0, 0, 1, 4, 35)"><g clip-path="url(#0fb1d76c32)"><g clip-path="url(#22aa0d60f8)"><g transform="matrix(1, 0, 0, 1, 62, 0)"><g clip-path="url(#c0598b85ca)"><g fill="#feb77f" fill-opacity="1"><g transform="translate(10.701892, 300.95779)"><g><path d="M 27.265625 -286.0625 L 143.21875 -286.0625 C 163.957031 -286.0625 183.347656 -282.476562 201.390625 -275.3125 C 219.441406 -268.144531 235.316406 -258.097656 249.015625 -245.171875 C 262.710938 -232.242188 273.460938 -217.140625 281.265625 -199.859375 C 289.078125 -182.578125 292.984375 -163.695312 292.984375 -143.21875 C 292.984375 -122.738281 289.078125 -103.796875 281.265625 -86.390625 C 273.460938 -68.984375 262.710938 -53.816406 249.015625 -40.890625 C 235.316406 -27.960938 219.441406 -17.914062 201.390625 -10.75 C 183.347656 -3.582031 164.085938 0 143.609375 0 L 27.265625 0 Z M 86.78125 -53.75 L 143.609375 -53.75 C 160.242188 -53.75 175.21875 -57.65625 188.53125 -65.46875 C 201.84375 -73.28125 212.398438 -83.90625 220.203125 -97.34375 C 228.015625 -110.78125 231.921875 -126.070312 231.921875 -143.21875 C 231.921875 -160.632812 228.015625 -175.992188 220.203125 -189.296875 C 212.398438 -202.609375 201.78125 -213.101562 188.34375 -220.78125 C 174.90625 -228.46875 159.863281 -232.3125 143.21875 -232.3125 L 86.78125 -232.3125 Z M 86.78125 -53.75 "/></g></g></g><g fill="#fd6f00" fill-opacity="1"><g transform="translate(0.859168, 291.115067)"><g><path d="M 27.261719 -288.59375 L 143.230469 -288.59375 C 164.285156 -288.59375 183.988281 -284.949219 202.335938 -277.664062 C 220.679688 -270.378906 236.820312 -260.160156 250.75 -247.011719 C 264.6875 -233.855469 275.625 -218.488281 283.570312 -200.90625 C 291.527344 -183.296875 295.507812 -164.070312 295.507812 -143.230469 C 295.507812 -122.390625 291.527344 -103.101562 283.574219 -85.367188 C 275.628906 -67.65625 264.6875 -52.21875 250.75 -39.0625 C 236.820312 -25.914062 220.679688 -15.695312 202.335938 -8.410156 C 183.988281 -1.125 164.414062 2.519531 143.613281 2.519531 L 24.742188 2.519531 L 24.742188 -288.59375 Z M 27.261719 -283.554688 L 27.261719 -286.074219 L 29.785156 -286.074219 L 29.785156 0 L 27.261719 0 L 27.261719 -2.519531 L 143.613281 -2.519531 C 163.769531 -2.519531 182.726562 -6.042969 200.472656 -13.09375 C 218.222656 -20.144531 233.828125 -30.019531 247.289062 -42.726562 C 260.742188 -55.425781 271.304688 -70.328125 278.976562 -87.429688 C 286.636719 -104.507812 290.464844 -123.109375 290.464844 -143.230469 C 290.464844 -163.347656 286.636719 -181.878906 278.976562 -198.832031 C 271.304688 -215.808594 260.742188 -230.644531 247.289062 -243.347656 C 233.828125 -256.054688 218.222656 -265.929688 200.472656 -272.980469 C 182.726562 -280.03125 163.644531 -283.554688 143.230469 -283.554688 Z M 86.78125 -56.277344 L 143.613281 -56.277344 C 159.796875 -56.277344 174.347656 -60.066406 187.265625 -67.644531 C 200.195312 -75.230469 210.453125 -85.550781 218.039062 -98.609375 C 225.621094 -111.65625 229.410156 -126.53125 229.410156 -143.230469 C 229.410156 -160.179688 225.621094 -175.113281 218.046875 -188.035156 C 210.464844 -200.957031 200.148438 -211.148438 187.097656 -218.609375 C 174.046875 -226.066406 159.421875 -229.796875 143.230469 -229.796875 L 86.78125 -229.796875 L 86.78125 -232.316406 L 89.300781 -232.316406 L 89.300781 -53.757812 L 86.78125 -53.757812 Z M 84.261719 -51.238281 L 84.261719 -234.835938 L 143.230469 -234.835938 C 160.316406 -234.835938 175.769531 -230.882812 189.597656 -222.984375 C 203.425781 -215.082031 214.359375 -204.28125 222.394531 -190.582031 C 230.433594 -176.878906 234.453125 -161.09375 234.453125 -143.230469 C 234.453125 -125.625 230.433594 -109.90625 222.398438 -96.074219 C 214.367188 -82.253906 203.507812 -71.328125 189.816406 -63.296875 C 176.109375 -55.257812 160.710938 -51.238281 143.613281 -51.238281 Z M 84.261719 -51.238281 "/></g></g></g></g></g></g><g transform="matrix(1, 0, 0, 1, 156, 90)"><g clip-path="url(#ed549e9d88)"><g fill="#c0c7d4" fill-opacity="1"><g transform="translate(5.564764, 99.292817)"><g><path d="M 56.21875 -54.90625 L 103.796875 -91.0625 L 103.796875 0 L 85.296875 0 L 85.296875 -53.9375 L 56.21875 -32.921875 L 27.15625 -53.9375 L 27.15625 0 L 8.53125 0 L 8.53125 -91.0625 Z M 56.21875 -54.90625 "/></g></g></g><g clip-path="url(#2493d92daf)"><g fill="#8995aa" fill-opacity="1"><g transform="translate(0.255409, 93.983462)"><g><path d="M 54.859375 -56.695312 L 106.050781 -95.605469 L 106.050781 2.253906 L 83.042969 2.253906 L 83.042969 -53.941406 L 85.296875 -53.941406 L 86.617188 -52.117188 L 56.222656 -30.136719 L 25.832031 -52.117188 L 27.152344 -53.941406 L 29.402344 -53.941406 L 29.402344 2.253906 L 6.277344 2.253906 L 6.277344 -95.597656 L 57.585938 -56.699219 L 56.222656 -54.902344 Z M 56.226562 -52.074219 L 7.167969 -89.269531 L 8.53125 -91.0625 L 10.78125 -91.0625 L 10.78125 0 L 8.53125 0 L 8.53125 -2.253906 L 27.152344 -2.253906 L 27.152344 0 L 24.898438 0 L 24.898438 -58.351562 L 57.542969 -34.742188 L 56.222656 -32.917969 L 54.902344 -34.742188 L 87.550781 -58.351562 L 87.550781 0 L 85.296875 0 L 85.296875 -2.253906 L 103.796875 -2.253906 L 103.796875 0 L 101.546875 0 L 101.546875 -91.0625 L 103.796875 -91.0625 L 105.160156 -89.269531 L 57.585938 -53.109375 Z M 56.226562 -52.074219 "/></g></g></g></g></g></g><g clip-path="url(#d65f6e87f2)"><g transform="matrix(1, 0, 0, 1, 0, 91)"><g clip-path="url(#aa39af75d4)"><g fill="#c0c7d4" fill-opacity="1"><g transform="translate(11.758461, 98.292817)"><g><path d="M 38.6875 -89.5 L 73.046875 -89.5 L 73.046875 -40 C 73.046875 -34.394531 72.222656 -29.085938 70.578125 -24.078125 C 68.941406 -19.078125 66.5 -14.65625 63.25 -10.8125 C 60.007812 -6.96875 55.945312 -3.941406 51.0625 -1.734375 C 46.175781 0.460938 40.53125 1.5625 34.125 1.5625 C 25.070312 1.5625 17.21875 -0.757812 10.5625 -5.40625 C 3.914062 -10.050781 -0.566406 -17.335938 -2.890625 -27.265625 L 14.171875 -32.4375 C 15.054688 -28.832031 16.316406 -25.945312 17.953125 -23.78125 C 19.597656 -21.625 21.398438 -20.023438 23.359375 -18.984375 C 25.328125 -17.941406 27.269531 -17.238281 29.1875 -16.875 C 31.113281 -16.519531 32.796875 -16.34375 34.234375 -16.34375 C 38.804688 -16.34375 42.59375 -17.484375 45.59375 -19.765625 C 48.59375 -22.046875 50.832031 -25.007812 52.3125 -28.65625 C 53.800781 -32.300781 54.546875 -36.082031 54.546875 -40 L 54.546875 -72.6875 L 38.6875 -72.6875 Z M 38.6875 -89.5 "/></g></g></g><g clip-path="url(#6f512767ff)"><g fill="#8995aa" fill-opacity="1"><g transform="translate(6.449102, 92.983462)"><g><path d="M 38.683594 -91.753906 L 75.296875 -91.753906 L 75.296875 -40.003906 C 75.296875 -34.160156 74.4375 -28.621094 72.722656 -23.386719 C 70.988281 -18.101562 68.40625 -13.425781 64.972656 -9.359375 C 61.511719 -5.253906 57.179688 -2.03125 51.984375 0.3125 C 46.804688 2.648438 40.847656 3.8125 34.117188 3.8125 C 24.597656 3.8125 16.316406 1.355469 9.28125 -3.558594 C 2.164062 -8.535156 -2.625 -16.265625 -5.078125 -26.757812 L -5.558594 -28.816406 L 15.800781 -35.28125 L 16.363281 -32.972656 C 17.171875 -29.671875 18.300781 -27.0625 19.753906 -25.148438 C 21.195312 -23.25 22.753906 -21.859375 24.421875 -20.972656 C 26.183594 -20.039062 27.910156 -19.410156 29.609375 -19.09375 C 31.394531 -18.757812 32.9375 -18.589844 34.238281 -18.589844 C 38.296875 -18.589844 41.628906 -19.578125 44.230469 -21.554688 C 46.90625 -23.589844 48.90625 -26.238281 50.234375 -29.5 C 51.605469 -32.875 52.289062 -36.375 52.289062 -40.003906 L 52.289062 -72.683594 L 54.542969 -72.683594 L 54.542969 -70.429688 L 36.429688 -70.429688 L 36.429688 -91.753906 Z M 38.683594 -87.25 L 38.683594 -89.503906 L 40.9375 -89.503906 L 40.9375 -72.683594 L 38.683594 -72.683594 L 38.683594 -74.933594 L 56.792969 -74.933594 L 56.792969 -40.003906 C 56.792969 -35.789062 56 -31.71875 54.40625 -27.804688 C 52.769531 -23.777344 50.285156 -20.5 46.953125 -17.96875 C 43.546875 -15.378906 39.308594 -14.085938 34.238281 -14.085938 C 32.65625 -14.085938 30.835938 -14.277344 28.777344 -14.664062 C 26.632812 -15.066406 24.476562 -15.84375 22.3125 -16.992188 C 20.054688 -18.1875 18.007812 -20 16.167969 -22.425781 C 14.335938 -24.835938 12.941406 -27.996094 11.988281 -31.902344 L 14.175781 -32.4375 L 14.828125 -30.28125 L -2.230469 -25.113281 L -2.882812 -27.269531 L -0.691406 -27.785156 C 1.5 -18.414062 5.6875 -11.570312 11.863281 -7.253906 C 18.121094 -2.878906 25.542969 -0.691406 34.117188 -0.691406 C 40.203125 -0.691406 45.542969 -1.726562 50.132812 -3.796875 C 54.707031 -5.859375 58.507812 -8.679688 61.53125 -12.265625 C 64.585938 -15.886719 66.890625 -20.0625 68.441406 -24.789062 C 70.007812 -29.566406 70.789062 -34.640625 70.789062 -40.003906 L 70.789062 -89.503906 L 73.042969 -89.503906 L 73.042969 -87.25 Z M 38.683594 -87.25 "/></g></g></g></g></g></g></g></g></g></svg>