<svg xmlns="http://www.w3.org/2000/svg" fill="none" viewBox="0 0 24 24" id="Vercel--Streamline-Svg-Logos" height="24" width="24">
  <desc>
    Vercel Streamline Icon: https://streamlinehq.com
  </desc>
  <path fill="#000000" d="M11.9734 10.670025c-0.91765 0 -1.5793 0.598475 -1.5793 1.496175 0 0.897725 0.744775 1.496175 1.662425 1.496175 0.554425 0 1.043175 -0.219425 1.345725 -0.589325l-0.635875 -0.3674c-0.1679 0.1837 -0.423075 0.290925 -0.70985 0.290925 -0.39815 0 -0.73645 -0.2078 -0.861975 -0.540275h2.32905c0.0183 -0.0931 0.0291 -0.189525 0.0291 -0.290925 0 -0.896875 -0.66165 -1.49535 -1.5793 -1.49535Zm-0.786325 1.20525c0.1039 -0.33165 0.388175 -0.540275 0.7855 -0.540275 0.39815 0 0.682425 0.208625 0.7855 0.540275h-1.571Zm9.7368 -1.20525c-0.91765 0 -1.5793 0.598475 -1.5793 1.496175 0 0.897725 0.744775 1.496175 1.662425 1.496175 0.554425 0 1.043175 -0.219425 1.345725 -0.589325l-0.635875 -0.3674c-0.1679 0.1837 -0.423075 0.290925 -0.70985 0.290925 -0.39815 0 -0.73645 -0.2078 -0.861975 -0.540275h2.329075c0.018275 -0.0931 0.029075 -0.189525 0.029075 -0.290925 0 -0.896875 -0.661625 -1.49535 -1.5793 -1.49535Zm-0.785475 1.20525c0.1039 -0.33165 0.388175 -0.540275 0.785475 -0.540275 0.39815 0 0.682425 0.208625 0.7855 0.540275h-1.570975Zm-3.244225 0.290925c0 0.498725 0.325825 0.831225 0.8312 0.831225 0.342475 0 0.5993 -0.15545 0.731475 -0.408975l0.638375 0.36825c-0.264325 0.440525 -0.759725 0.705675 -1.36985 0.705675 -0.918475 0 -1.5793 -0.59845 -1.5793 -1.496175 0 -0.8977 0.66165 -1.496175 1.5793 -1.496175 0.610125 0 1.104675 0.26515 1.36985 0.7057l-0.638375 0.368225c-0.132175 -0.253525 -0.389 -0.40895 -0.731475 -0.40895 -0.50455 0 -0.8312 0.332475 -0.8312 0.8312ZM23.75 9.7557v3.823575h-0.7481V9.7557H23.75Zm-20.428675 -0.4156 3.071325 5.31975H0.25l3.071325 -5.31975Zm7.678725 0.4156L8.696775 13.7455l-2.3033 -3.9898h0.863625l1.439675 2.493625 1.43965 -2.493625h0.863625Zm4.896675 0.99745v0.80545c-0.083125 -0.024125 -0.171225 -0.04075 -0.266 -0.04075 -0.482925 0 -0.8312 0.3325 -0.8312 0.831225v1.2302h-0.7481V10.75315h0.7481v0.7647c0 -0.42225 0.49125 -0.7647 1.0972 -0.7647Z" stroke-width="0.25"></path>
</svg>